Coordinates
version=1
nRows=13
nColumns=36
inDegrees=yes

Units are S.I. units (second, meters, Newtons, ...)
If the header above contains a line with 'inDegrees', this indicates whether rotational values are in degrees (yes) or radians (no).

endheader
time	pelvis_tilt	pelvis_list	pelvis_rotation	pelvis_tx	pelvis_ty	pelvis_tz	hip_flexion_r	hip_adduction_r	hip_rotation_r	knee_angle_r	knee_angle_r_beta	ankle_angle_r	subtalar_angle_r	mtp_angle_r	hip_flexion_l	hip_adduction_l	hip_rotation_l	knee_angle_l	knee_angle_l_beta	ankle_angle_l	subtalar_angle_l	mtp_angle_l	lumbar_extension	lumbar_bending	lumbar_rotation	arm_flex_r	arm_add_r	arm_rot_r	elbow_flex_r	pro_sup_r	arm_flex_l	arm_add_l	arm_rot_l	elbow_flex_l	pro_sup_l
      3.50416670	     -1.62237981	      1.00988941	      3.30054241	      0.29896103	      0.86273830	     -0.02383617	     26.07116474	     -9.52932015	      1.38404920	     47.73114748	      0.83306568	     25.97384354	     -9.47719818	     -7.49999987	     28.15540511	     -4.56340694	      5.36106250	     48.85628897	      0.85270310	     20.79817790	    -17.34715235	     -7.49999987	    -26.28933511	      8.92124519	     -1.09865875	     19.52389908	    -15.79273308	      1.15092026	     35.36220472	     78.96337638	     28.47612447	    -21.14030305	    -11.33610205	     95.03603272	     43.91203684
      3.50833330	     -2.23204825	      0.69902496	      3.49596858	      0.29878849	      0.86853026	     -0.02407214	     25.90846247	     -9.04909672	      1.45645767	     46.43428967	      0.81043124	     26.09603714	     -9.28773350	     -7.49999987	     28.46083337	     -4.90825250	      5.32737933	     48.01993961	      0.83810605	     20.50733484	    -16.79641638	     -7.49999987	    -24.97557590	      9.34981202	     -1.17109583	     18.98457341	    -15.69850643	      0.86374970	     35.24445169	     78.93098104	     27.98820826	    -21.00810533	    -11.65085757	     94.19458019	     43.72840522
      3.51250000	     -2.76350311	      0.36880318	      3.62884626	      0.29948605	      0.87198274	     -0.02476599	     25.58661045	     -8.43129215	      1.69624495	     44.96330730	      0.78475775	     25.76909699	     -9.39603422	     -7.49999987	     28.63616773	     -5.24841963	      5.37507735	     47.26491915	      0.82492846	     20.15877983	    -16.29810710	     -7.49999987	    -23.87759764	      9.80093850	     -1.01020586	     18.27401034	    -15.81881792	      0.36344240	     35.23474268	     78.21136737	     27.49323517	    -20.74479063	    -11.57415335	     93.39508011	     44.17812125
      3.51666670	     -3.13031333	      0.26406637	      3.40749899	      0.30350124	      0.87438058	     -0.02906965	     24.95519228	     -8.29912755	      1.84523280	     43.47543345	      0.75878946	     25.47201826	     -9.53460137	     -7.49999987	     28.31209443	     -5.27732464	      5.17228556	     46.36710715	      0.80925868	     19.95349688	    -15.84578738	     -7.49999987	    -22.93015780	     10.03127892	     -0.90011136	     17.73251156	    -16.13062171	      0.16559328	     35.26305387	     77.94720325	     26.65649808	    -20.54490235	    -11.52095242	     93.04512519	     44.34536596
      3.52083330	     -3.52763628	     -0.06700619	      3.49318477	      0.30049854	      0.87790676	     -0.02484857	     24.34922167	     -7.70455013	      2.05538990	     41.62723837	      0.72653237	     24.59830226	    -10.65331907	     -7.49999987	     28.17377453	     -5.54727646	      5.41237737	     45.11678298	      0.78743641	     19.17592275	    -16.08278248	     -7.49999987	    -22.24910517	     10.47604381	     -0.90403387	     17.75719557	    -16.05810797	     -0.20727319	     34.73373009	     77.92509252	     26.52394565	    -20.26648108	    -11.63209897	     91.99844410	     44.24914062
      3.52500000	     -3.80253250	     -0.28624148	      3.63606171	      0.30033422	      0.88028774	     -0.02513659	     23.97577863	     -7.31475763	      2.18502502	     40.42729487	      0.70558940	     23.88651652	    -11.60202807	     -7.49999987	     28.08568046	     -5.72945017	      5.57065434	     44.21033328	      0.77161588	     18.66578139	    -15.96529566	     -7.49999987	    -21.86164342	     10.76626577	     -0.77966687	     17.67053304	    -16.11082497	     -0.58347101	     34.39040388	     77.72655689	     26.81681503	    -20.06033722	    -11.68577781	     91.42593532	     44.28387862
      3.52916670	     -3.95650321	     -0.52861347	      3.64602396	      0.30101601	      0.88367158	     -0.02580378	     23.47902274	     -6.82057354	      2.50591061	     39.16372158	      0.68353589	     22.97262548	    -12.68617590	     -7.49999987	     27.77237912	     -5.88433880	      5.78480825	     43.16327848	      0.75334133	     18.03109822	    -16.09379781	     -7.49999987	    -21.67342554	     11.00965284	     -0.64876171	     17.39919679	    -16.09444387	     -0.98770990	     34.44984044	     77.28364877	     26.76731498	    -19.79375015	    -11.89045215	     91.11781443	     44.53549816
      3.53333330	     -4.41314794	     -0.61866895	      3.44011745	      0.30089290	      0.88237462	     -0.02541773	     23.75204982	     -6.64323364	      2.73956702	     38.68572803	      0.67519333	     22.93886086	    -12.51083511	     -7.49999987	     27.82629332	     -5.93393679	      5.85298224	     42.41612835	      0.74030110	     18.25960702	    -15.32132215	     -7.49999987	    -20.97355830	     11.04443044	     -0.49095654	     17.14766302	    -16.27201720	     -1.12188689	     35.07373527	     76.81773810	     26.71113731	    -19.57261995	    -11.94577938	     91.15812938	     44.90731056
      3.53750000	     -4.43429489	     -0.72032953	      3.27266343	      0.30118691	      0.88371340	     -0.02577685	     23.39714854	     -6.41224873	      3.01473099	     37.84322202	      0.66048882	     21.82515524	    -13.38696559	     -7.49999987	     27.33505605	     -5.84609662	      6.32039012	     41.45815422	      0.72358129	     17.11713474	    -16.67171357	     -7.49999987	    -20.88095806	     11.05560898	     -0.27864419	     17.32315414	    -16.19488555	     -1.57676701	     34.48026915	     76.68269122	     26.79380337	    -19.23013346	    -12.72809642	     92.34820624	     44.84363620
      3.54166670	     -4.69054672	     -0.60712819	      3.10930424	      0.30101129	      0.88620540	     -0.02544392	     23.49845846	     -6.47396938	      3.15034522	     37.33285274	      0.65158120	     21.25321874	    -13.82464683	     -7.49999987	     26.94040031	     -5.46678157	      7.03536129	     40.46909261	      0.70631891	     16.63202029	    -17.40530887	     -7.49999987	    -20.41193855	     10.81189580	     -0.45990653	     17.18814147	    -16.03692573	     -1.82326934	     34.83511084	     75.86414254	     26.68014995	    -19.57101904	    -13.17707216	     93.36725735	     45.39338479
      3.54583330	     -4.90512168	     -0.54701395	      3.06403799	      0.30164500	      0.88992874	     -0.02570668	     23.15927363	     -6.64930499	      2.87279774	     36.23734736	      0.63246102	     20.83025952	    -13.45088469	     -7.49999987	     26.47012463	     -5.25950911	      7.47205852	     39.34404569	      0.68668314	     16.21442184	    -17.67413231	     -7.49999987	    -19.90594545	     10.65117940	     -0.92679404	     17.03150340	    -15.73922184	     -1.83293915	     35.19634147	     75.84016074	     26.07412522	    -19.96263293	    -13.89381716	     94.04064133	     45.20426896
      3.55000000	     -5.15765109	     -0.40473141	      2.87107866	      0.30541220	      0.88942007	     -0.02983304	     22.76691569	     -6.98365218	      2.90935646	     35.23327474	      0.61493665	     20.60806024	    -13.14963450	     -7.49999987	     26.13649547	     -5.00117146	      7.64241878	     38.54652215	      0.67276373	     16.17278210	    -17.69227945	     -7.49999987	    -19.08704980	     10.42362139	     -1.07464789	     16.56094820	    -15.79918487	     -1.83203574	     35.32933239	     75.89294116	     25.39710616	    -19.89692710	    -14.08032969	     94.32459776	     45.11897492
      3.55416670	     -5.35957440	     -0.27689434	      2.85890859	      0.30199125	      0.89318137	     -0.02570163	     22.38526453	     -7.20112747	      2.72559001	     34.04502597	      0.59419780	     20.56737224	    -12.71147818	     -7.49999987	     25.62171285	     -4.75391062	      7.95657265	     37.25123156	      0.65015664	     15.46337314	    -18.18315874	     -7.49999987	    -18.81601952	     10.19820838	     -1.65722732	     16.45328163	    -15.55984366	     -2.07429646	     35.98107812	     76.08159136	     24.84011762	    -20.19359866	    -15.20801251	     94.90128370	     44.72104114
